#!OML:ASF F:\VICON\USERDATA\INSTALL\rory3\rory3.ASF
:FULLY-SPECIFIED
:DEGREES
37
root -0.5083652852082446 18.432074661709805 12.059669831310183 2.922438640571185 3.460342044125542 -3.985751426821756
lfemur -19.66761413224438 3.844952834387682 -17.70446102465137
ltibia 85.68396000948829
lfoot 6.8045783185448165 -11.607038108689629
ltoes -11.575394030939972
rfemur -20.481732616545962 1.2789344119567247 32.18468837478667
rtibia 53.7393210556223
rfoot 0.6758214087156489 -7.280539565577125
rtoes 9.191568447433179
lowerback 16.083787009971708 0.426453889209183 2.5295156542167776
upperback -0.8976289736282064 1.1709466312331627 2.8906202593338683
thorax -9.980566281132429 0.5310183318920872 0.8468324162042353
lowerneck -21.075217795600757 -3.105902181408579 -1.6918477035146025
upperneck 13.249089957061463 -4.176545035228354 2.255312324282537
head 7.612239753020497 -1.8220114890025623 0.45437320863498887
lclavicle -2.2938402138431428e-15 1.3738102304929758e-15
lhumerus -48.594189436173174 -17.4574846422994 100.63009704053802
lradius 114.11948700871244
lwrist 33.75141808723945
lhand -24.496895290783993 2.8387361302606076
lfingers 7.12502
lthumb 1.9974153645608228 32.80709817098128
rclavicle -2.2938402138431428e-15 1.3738102304929758e-15
rhumerus -53.863649633672594 6.853390696678856 -96.40116338181073
rradius 106.34400650628784
rwrist -9.308780348740576
rhand -15.828501564116902 39.30574076374738
rfingers 7.12502
rthumb 10.365497892413572 9.575927077489832
38
root -0.5219330435765461 18.410933592083314 12.96938152024379 3.0867780356739787 2.8299693814946045 -4.360324909309392
lfemur -24.072158947498075 4.337757147294158 -16.941702783588255
ltibia 84.04451467949801
lfoot 4.415048541602486 -9.921414176318343
ltoes -11.198970182039025
rfemur -16.722765173741852 1.7440999981822642 33.08639637253262
rtibia 52.56432078873206
rfoot -1.5283057160249935 -7.336674481801952
rtoes 9.581404000667721
lowerback 16.08831928904291 0.7473476358088655 3.1896475466192196
upperback -0.813035863268845 1.7042143285984444 2.801979430635646
thorax -9.917229910349851 0.7468768085186066 0.2320869796157249
lowerneck -21.059408241152305 -3.2695970396488665 -1.6496943748389519
upperneck 13.32224205288067 -4.429140736001889 2.306509227183978
head 7.628115111849587 -1.9312278893100676 0.4499398468836112
lclavicle -2.119683112660138e-15 1.500132036620804e-15
lhumerus -50.33794637495819 -17.03551214404356 100.94764454491025
lradius 113.31499394430897
lwrist 34.080855763853116
lhand -24.773352383639654 2.0401900225947545
lfingers 7.12502
lthumb 1.7304407453880932 32.01179411896724
rclavicle -2.119683112660138e-15 1.500132036620804e-15
rhumerus -51.23861348768443 8.70010958022068 -97.45939795291491
rradius 107.8845484585023
rwrist -10.085855651649073
rhand -16.078442914431704 39.2914114838952
rfingers 7.12502
rthumb 10.124295972598542 9.558022622623714
39
root -0.5212919939873062 18.341407618229326 15.124997280595487 3.519071626438114 2.1176336551681714 -4.669242707443809
lfemur -27.579466812601332 4.3090398008584465 -16.032093222877748
ltibia 80.0626423024327
lfoot 1.8111071910750371 -7.663063642079969
ltoes -10.789106806854727
rfemur -12.320455175146567 2.172034303990055 34.09681988087506
rtibia 51.83343631559061
rfoot -3.3192263238456032 -7.307103689801495
rtoes 9.561235829185481
lowerback 16.07477227340103 1.1577427023463829 3.984164659326847
upperback -0.793474453172764 2.3785897476867395 2.735904501434131
thorax -9.8536725014132 1.0216713150735686 -0.3695443434162101
lowerneck -21.159792643582396 -3.3539992447122082 -1.5941284282736885
upperneck 13.343758736856667 -4.580020007198419 2.4317287990229945
head 7.64679365875218 -1.982099779641756 0.4626735968492326
lclavicle -1.312046134510667e-15 2.08593763536313e-15
lhumerus -51.73810276711023 -16.507822341063285 101.30199811005527
lradius 112.7752952429146
lwrist 34.274514354999944
lhand -24.889035114189575 1.7662382817465596
lfingers 7.12502
lthumb 1.6187465036607738 31.739066899712018
rclavicle -1.312046134510667e-15 2.08593763536313e-15
rhumerus -48.368456976362836 10.73477666398373 -98.34450330427357
rradius 109.82015792270627
rwrist -10.854289673911445
rhand -16.39235950290546 39.38184759972958
rfingers 7.12502
rthumb 9.821347524051193 9.64092065515375
40
root -0.5285555133465952 18.17867031637057 15.369781590926415 3.9428250016486195 1.1975000710491606 -5.159293009819976
lfemur -31.878964328288582 3.294099315205512 -15.720900463026158
ltibia 71.67967207383862
lfoot -1.5300095368337978 -5.846622434455446
ltoes -11.740973396701529
rfemur -9.80235979881258 2.363675040295316 34.42029501341004
rtibia 48.354955105984544
rfoot -5.956928134214742 -8.044239331718073
rtoes 7.602100941661869
lowerback 15.850745943971244 1.3975489339094826 4.404219120661424
upperback -0.9282166959032021 2.7719558291867177 2.533021115129068
thorax -9.855716615690522 1.180564798713856 -1.20753107277661
lowerneck -21.429097176724728 -3.5212769065057365 -1.6012209475373995
upperneck 13.220029596013642 -4.828141055212172 2.426020159273079
head 7.628767569871133 -2.089773212118352 0.44095628172870993
lclavicle -2.822627034226633e-15 9.902636881884363e-16
lhumerus -54.59741291113057 -16.305657734198586 101.4378699683926
lradius 111.69981655698044
lwrist 34.26637257139555
lhand -25.055142601282956 1.6113959075512807
lfingers 7.12502
lthumb 1.4583053196707483 31.583426773235875
rclavicle -2.822627034226633e-15 9.902636881884363e-16
rhumerus -46.33359313982277 12.167068368117214 -99.491030150058
rradius 111.29405876512614
rwrist -11.794305886279014
rhand -16.779653774356632 39.412609723846906
rfingers 7.12502
rthumb 9.447621661579996 9.66647944729605
41
root -0.5138257507005749 18.03859735641295 17.101810416050604 4.442122828641272 0.519087402532912 -5.427270637770109
lfemur -33.81206008759241 2.2077765181188003 -14.858293321412742
ltibia 64.84266278543227
lfoot -1.6642359577782198 -4.242282484811319
ltoes -11.563767169014042
rfemur -5.281248657417709 2.6709007483121985 35.160789202118806
rtibia 48.17366023628681
rfoot -7.137768875174784 -7.791557870253817
rtoes 6.675123435842371
lowerback 15.601705414620673 1.7544840590476536 5.041792922208026
upperback -1.0035911865106846 3.3478290198699145 2.491203432638522
thorax -9.751526696991341 1.4167723327239452 -1.69647640887684
lowerneck -21.589684978557372 -3.6188677912720166 -1.5648974888148706
upperneck 13.095666644123598 -5.015117484424517 2.5743631764249044
head 7.619772587731102 -2.1495225893869487 0.4672515251628703
lclavicle -2.2178523527610423e-15 1.4289266269856437e-15
lhumerus -56.578283327857186 -15.581309844591642 101.50218861421571
lradius 110.49209056067171
lwrist 34.148906254860314
lhand -25.068977140206957 1.5308125118000762
lfingers 7.12502
lthumb 1.4449556530912324 31.501917590958154
rclavicle -2.2178523527610423e-15 1.4289266269856437e-15
rhumerus -43.94457130898324 13.567405931959971 -99.969829267695
rradius 112.93538066788678
rwrist -12.392075510606112
rhand -17.044708916544863 39.87588694766798
rfingers 7.12502
rthumb 9.191832302684938 10.115926228223428
42
root -0.492645155096618 17.862195173403478 18.68573728234294 4.927095976105441 -0.09562477626318888 -5.633392859942743
lfemur -35.19680720392931 0.6347960743174903 -14.257660091888603
ltibia 56.295409726051794
lfoot -1.8851406706496312 -2.9367213795841423
ltoes -11.496564357412264
rfemur -1.3789600112347173 2.8474285033794384 35.50733750787193
rtibia 47.788165710791944
rfoot -7.849536228720657 -7.505332925417434
rtoes 4.408330596670522
lowerback 15.238939432678361 2.0545896374858055 5.490949807117206
upperback -1.0952854364147275 3.8147398120412217 2.396308284105473
thorax -9.638696906285448 1.609985499244801 -2.1637667858357217
lowerneck -21.774865430216316 -3.7237924274946854 -1.5414942266274667
upperneck 12.958068893195646 -5.190016126674254 2.6680971111131746
head 7.603172433612295 -2.213609655453654 0.48114151043501346
lclavicle -2.114002438502884e-15 1.5042523700417888e-15
lhumerus -58.460736480049775 -14.606386089128796 101.37340702522175
lradius 108.94063576206926
lwrist 33.9888788117157
lhand -25.152536270310755 1.4129847096897183
lfingers 7.12502
lthumb 1.3642571133673531 31.38373907618334
rclavicle -2.114002438502884e-15 1.5042523700417888e-15
rhumerus -41.80283049207081 14.637342087562098 -100.42301985603532
rradius 114.31098089378001
rwrist -12.86192402435908
rhand -17.282311293528807 40.18961406805907
rfingers 7.12502
rthumb 8.962539561629534 10.419688513144749
43
root -0.44599039560160436 17.70101168260297 20.95479311993386 5.354561709639232 -0.4517349174093891 -5.600135692640532
lfemur -34.76175535412688 -0.8242707652421415 -13.73108358573338
ltibia 49.36500033323661
lfoot -1.1742408120464214 -2.0056279100046615
ltoes -11.297515205412545
rfemur 2.569636440652033 3.096074263749667 35.716134630612615
rtibia 49.127845767806605
rfoot -7.272008248831451 -6.7346210373178605
rtoes 2.159546726048569
lowerback 14.867601448071818 2.3414894460276665 5.8427286728634815
upperback -1.1712084924614037 4.242684655734999 2.32521800851308
thorax -9.499898689690047 1.7898342163712138 -2.357694290276161
lowerneck -21.843003776247663 -3.7724801101647136 -1.5108952959414752
upperneck 12.930835310550435 -5.279338572799811 2.792018820678795
head 7.608385033071171 -2.2410526777769393 0.5114694813244358
lclavicle -1.1303073362616455e-15 2.217758732910722e-15
lhumerus -59.548714860720494 -13.301281627323677 101.09243610124636
lradius 107.44830777667674
lwrist 33.80462158716639
lhand -25.12511769649547 1.4246659949138851
lfingers 7.12502
lthumb 1.3907336064426057 31.394691129375953
rclavicle -1.1303073362616455e-15 2.217758732910722e-15
rhumerus -39.990353600250444 15.364983965025164 -100.49457051909788
rradius 115.42234831279586
rwrist -13.002685149548865
rhand -17.387913974520597 40.453346736615885
rfingers 7.12502
rthumb 8.860628351206707 10.675543132277154
